<?xml version="1.0" encoding="utf-8"?>
<!-- Generator: Adobe Illustrator 16.0.4, SVG Export Plug-In . SVG Version: 6.00 Build 0)  -->
<!DOCTYPE svg PUBLIC "-//W3C//DTD SVG 1.1//EN" "http://www.w3.org/Graphics/SVG/1.1/DTD/svg11.dtd">
<svg version="1.1" id="Capa_1" xmlns="http://www.w3.org/2000/svg" xmlns:xlink="http://www.w3.org/1999/xlink" x="0px" y="0px"
	 width="10.088px" height="19.675px" viewBox="0 0 10.088 19.675" enable-background="new 0 0 10.088 19.675" xml:space="preserve">
<path d="M7.502,18.468c1.149-0.475,1.888-1.908,1.749-3.004c-0.234-1.801-1.146-1.728-1.146-3.051c0-1.326,1.424-3.407,1.76-3.726
	c0.336-0.318,0.291-0.279-0.11-0.5C9.351,7.972,8.772,8.254,8.772,8.254l-0.437,0.18c0,0-0.058-0.309-0.142-0.844
	C8.112,7.054,7.431,6.127,7.431,6.127S8.556,6.239,8.705,5.87C8.856,5.5,8.604,5.316,8.604,5.316V4.931L8.437,5.015L8.151,5.032
	L8.085,4.847c0,0-0.184,0.152-0.386,0.152c-0.201,0-0.903-0.078-1.031-0.334C6.373,4.077,6.53,3.938,7.049,3.715
	c0.789-0.34,1.435,0.338,1.435,0.338L8.55,4.271c0,0,0.117-0.133,0.303-0.148c0.184-0.018,0.291,0.035,0.291,0.035
	S9.276,4.142,9.41,3.806c0.135-0.334,0.067-0.486,0.067-0.654s0-0.217,0.067-0.434c0.067-0.219-0.085-0.471-0.37-0.621
	c-0.285-0.152-1.14-0.219-1.14-0.219s0.05-0.117-0.033-0.266c-0.084-0.156-0.233-0.27-0.671-0.455
	C6.894,0.972,6.877,0.467,5.922,0.101C4.963-0.269,3.069,0.5,3.069,0.5s-0.2-0.115-0.437-0.084C2.396,0.454,1.961,0.334,1.912,0.37
	C1.861,0.4,2.081,0.972,2.081,0.972S1.777,1.157,1.526,1.508C1.274,1.859,0.958,2.667,0.923,3.521
	C0.889,4.377,0.62,5.064,0.555,5.215c-0.067,0.15,0.773-0.119,0.773-0.119s-0.07,0.254-0.236,0.959
	C0.923,6.758,0.503,8.051,0.403,8.336C0.301,8.622,1.22,8.217,1.22,8.217s-0.082,0.434-0.324,1.27
	c-0.228,0.785-0.809,1.504-0.891,1.756c-0.084,0.252,0.987,0.365,0.987,0.365s-1.337,1.768-0.663,3.82
	c0.795,2.416,2.267,3.039,2.267,3.039H0.804v1.207h9.055v-1.207H7.502z M9.328,2.396c0.116,0.121,0.082,0.337,0.03,0.472
	C9.31,3.002,9.008,2.351,9.008,2.351C9.144,2.179,9.21,2.282,9.328,2.396z M6.457,1.961c0,0,0.219-0.148,0.571-0.066
	c0.353,0.084,0.268,0.219,0.268,0.219S7.129,2.163,6.86,2.179C6.592,2.195,6.29,2.03,6.29,2.03L6.457,1.961z M4.147,1.206
	c0,0-0.855,2.453,0.072,4.922c0.765,2.031,2.403,4.125,2.403,4.125S4.131,9.601,3.095,6.489C2.277,4.034,4.147,1.206,4.147,1.206z
	 M6.524,16.167c0,0-0.051-0.199-0.084-0.148c-0.035,0.051-0.133,0.082-0.233,0.148c-0.586,0.397-1.189-1.67-0.315-2.144
	c0,0,1.213-0.032,1.459,0.757C7.621,15.646,6.524,16.167,6.524,16.167z M7.263,9.984c0,0-0.168-1.279-1.031-2.418
	C3.692,4.213,4.865,1.793,4.865,1.793S4.832,2.263,4.93,2.935C5.033,3.606,5.13,4.476,5.992,5.338
	C8.077,7.422,7.263,9.984,7.263,9.984z"/>
</svg>
